<?xml version="1.0" encoding="UTF-8" standalone="no"?><!DOCTYPE svg PUBLIC "-//W3C//DTD SVG 1.1//EN" "http://www.w3.org/Graphics/SVG/1.1/DTD/svg11.dtd"><svg width="100%" height="100%" viewBox="0 0 800 800" version="1.1" xmlns="http://www.w3.org/2000/svg" xmlns:xlink="http://www.w3.org/1999/xlink" xml:space="preserve" xmlns:serif="http://www.serif.com/" style="fill-rule:evenodd;clip-rule:evenodd;stroke-linejoin:round;stroke-miterlimit:2;"><g><g><g><path d="M666.667,800l-533.333,0c-73.333,0 -133.333,-60 -133.333,-133.333l0,-533.333c0,-73.333 60,-133.333 133.333,-133.333l533.333,0c73.333,0 133.333,60 133.333,133.333l0,533.333c0,73.333 -60,133.333 -133.333,133.333Zm-533.333,-733.333c-36.667,0 -66.667,30 -66.667,66.667l0,533.333c0,36.667 30,66.667 66.667,66.667l533.333,0c36.667,0 66.667,-30 66.667,-66.667l0,-533.333c0,-36.667 -30,-66.667 -66.667,-66.667l-533.333,0Z" style="fill-rule:nonzero;"/></g></g><g><g><path d="M266.667,800c-20,0 -33.333,-13.333 -33.333,-33.333l0,-733.333c0,-20 13.333,-33.333 33.333,-33.333c20,0 33.333,13.333 33.333,33.333l0,733.333c0,20 -13.333,33.333 -33.333,33.333Z" style="fill-rule:nonzero;"/></g></g><g><g><path d="M566.667,366.667c10,0 16.667,3.333 23.333,10c13.333,13.333 13.333,33.333 0,46.667l-100,100c-13.333,13.333 -33.333,13.333 -46.667,0c-13.333,-13.333 -13.333,-33.333 0,-46.667l100,-100c6.667,-6.667 13.333,-10 23.333,-10Z" style="fill-rule:nonzero;"/></g></g><g><g><path d="M466.667,266.667c10,0 16.667,3.333 23.333,10l100,100c13.333,13.333 13.333,33.333 0,46.667c-13.333,13.333 -33.333,13.333 -46.667,0l-100,-100c-13.333,-13.333 -13.333,-33.333 0,-46.667c6.667,-6.667 13.333,-10 23.333,-10Z" style="fill-rule:nonzero;"/></g></g></g></svg>