<?xml version="1.0" encoding="UTF-8" standalone="no"?><!DOCTYPE svg PUBLIC "-//W3C//DTD SVG 1.1//EN" "http://www.w3.org/Graphics/SVG/1.1/DTD/svg11.dtd"><svg width="100%" height="100%" viewBox="0 0 417 417" version="1.1" xmlns="http://www.w3.org/2000/svg" xmlns:xlink="http://www.w3.org/1999/xlink" xml:space="preserve" xmlns:serif="http://www.serif.com/" style="fill-rule:evenodd;clip-rule:evenodd;stroke-linecap:round;stroke-linejoin:round;stroke-miterlimit:1.5;"><g><path d="M335.538,42.804c0,0 -5.75,49.067 47.825,63.304" style="fill:none;stroke:#fff;stroke-width:13.04px;"/><path d="M38.975,212.625l40.412,5.629" style="fill:none;stroke:#fff;stroke-width:13.04px;"/><path d="M144.604,304.575l-5.629,40.412" style="fill:none;stroke:#fff;stroke-width:13.04px;"/><path d="M238.342,297.033c0,0 -91.396,62.958 -99.367,47.954" style="fill:none;stroke:#fff;stroke-width:13.04px;"/><path d="M112.254,130.142c0,0 -85.538,70.717 -73.279,82.483" style="fill:none;stroke:#fff;stroke-width:13.04px;"/><path d="M235.475,248.504l2.867,48.525" style="fill:none;stroke:#fff;stroke-width:13.04px;"/><path d="M158.158,146.163l-45.904,-16.021" style="fill:none;stroke:#fff;stroke-width:13.04px;"/><path d="M401.908,46.896c0,0 -132.979,-53.904 -288.479,156.596" style="fill:none;stroke:#fff;stroke-width:13.04px;"/><path d="M401.908,46.896c0,0 6.908,131.246 -232.879,230.183" style="fill:none;stroke:#fff;stroke-width:13.04px;"/><path d="M114.296,300.354l-63.304,47.825" style="fill:none;stroke:#fff;stroke-width:13.04px;"/><path d="M52.271,302.017l-34.529,26.087" style="fill:none;stroke:#fff;stroke-width:13.04px;"/><path d="M65.062,247.154l-51.792,39.129" style="fill:none;stroke:#fff;stroke-width:13.04px;"/><path d="M173.125,210.708l-86.321,65.217" style="fill:none;stroke:#fff;stroke-width:13.04px;"/><path d="M113.775,203.946c0,0 -0.05,51.196 55.258,73.138" style="fill:none;stroke:#fff;stroke-width:13.04px;"/><path d="M313.413,109.237c8.4,11.117 6.192,26.963 -4.925,35.358c-11.117,8.4 -26.963,6.192 -35.358,-4.925c-8.4,-11.117 -6.192,-26.963 4.925,-35.358c11.117,-8.4 26.963,-6.192 35.358,4.925Z" style="fill:none;stroke:#fff;stroke-width:13.04px;"/><path d="M238.863,166.117c7.2,9.529 5.308,23.108 -4.221,30.308c-9.529,7.2 -23.108,5.308 -30.308,-4.221c-7.2,-9.529 -5.308,-23.108 4.221,-30.308c9.529,-7.2 23.108,-5.308 30.308,4.221Z" style="fill:none;stroke:#fff;stroke-width:13.04px;"/></g></svg>