<?xml version="1.0" encoding="UTF-8" standalone="no"?><!DOCTYPE svg PUBLIC "-//W3C//DTD SVG 1.1//EN" "http://www.w3.org/Graphics/SVG/1.1/DTD/svg11.dtd"><svg width="100%" height="100%" viewBox="0 0 100 100" version="1.1" xmlns="http://www.w3.org/2000/svg" xmlns:xlink="http://www.w3.org/1999/xlink" xml:space="preserve" xmlns:serif="http://www.serif.com/" style="fill-rule:evenodd;clip-rule:evenodd;stroke-linecap:round;stroke-linejoin:round;stroke-miterlimit:1.5;"><g><path d="M80.529,10.273c0,0 -1.38,11.776 11.478,15.193" style="fill:none;stroke:#000;stroke-width:3.13px;"/><path d="M9.354,51.03l9.699,1.351" style="fill:none;stroke:#000;stroke-width:3.13px;"/><path d="M34.705,73.098l-1.351,9.699" style="fill:none;stroke:#000;stroke-width:3.13px;"/><path d="M57.202,71.288c0,0 -21.935,15.11 -23.848,11.509" style="fill:none;stroke:#000;stroke-width:3.13px;"/><path d="M26.941,31.234c0,0 -20.529,16.972 -17.587,19.796" style="fill:none;stroke:#000;stroke-width:3.13px;"/><path d="M56.514,59.641l0.688,11.646" style="fill:none;stroke:#000;stroke-width:3.13px;"/><path d="M37.958,35.079l-11.017,-3.845" style="fill:none;stroke:#000;stroke-width:3.13px;"/><path d="M96.458,11.255c0,0 -31.915,-12.937 -69.235,37.583" style="fill:none;stroke:#000;stroke-width:3.13px;"/><path d="M96.458,11.255c0,0 1.658,31.499 -55.891,55.244" style="fill:none;stroke:#000;stroke-width:3.13px;"/><path d="M27.431,72.085l-15.193,11.478" style="fill:none;stroke:#000;stroke-width:3.13px;"/><path d="M12.545,72.484l-8.287,6.261" style="fill:none;stroke:#000;stroke-width:3.13px;"/><path d="M15.615,59.317l-12.43,9.391" style="fill:none;stroke:#000;stroke-width:3.13px;"/><path d="M41.55,50.57l-20.717,15.652" style="fill:none;stroke:#000;stroke-width:3.13px;"/><path d="M27.306,48.947c0,0 -0.012,12.287 13.262,17.553" style="fill:none;stroke:#000;stroke-width:3.13px;"/><path d="M75.219,26.217c2.016,2.668 1.486,6.471 -1.182,8.486c-2.668,2.016 -6.471,1.486 -8.486,-1.182c-2.016,-2.668 -1.486,-6.471 1.182,-8.486c2.668,-2.016 6.471,-1.486 8.486,1.182Z" style="fill:none;stroke:#000;stroke-width:3.13px;"/><path d="M57.327,39.868c1.728,2.287 1.274,5.546 -1.013,7.274c-2.287,1.728 -5.546,1.274 -7.274,-1.013c-1.728,-2.287 -1.274,-5.546 1.013,-7.274c2.287,-1.728 5.546,-1.274 7.274,1.013Z" style="fill:none;stroke:#000;stroke-width:3.13px;"/></g></svg>