<?xml version="1.0" encoding="UTF-8" standalone="no"?><!DOCTYPE svg PUBLIC "-//W3C//DTD SVG 1.1//EN" "http://www.w3.org/Graphics/SVG/1.1/DTD/svg11.dtd"><svg width="100%" height="100%" viewBox="0 0 417 417" version="1.1" xmlns="http://www.w3.org/2000/svg" xmlns:xlink="http://www.w3.org/1999/xlink" xml:space="preserve" xmlns:serif="http://www.serif.com/" style="fill-rule:evenodd;clip-rule:evenodd;stroke-linecap:round;stroke-linejoin:round;stroke-miterlimit:1.5;"><g><path d="M291.371,74.742c0,0 -3.321,28.346 27.629,36.571" style="fill:none;stroke:#fff;stroke-width:8.67px;"/><path d="M120.05,172.85l23.346,3.25" style="fill:none;stroke:#fff;stroke-width:8.67px;"/><path d="M181.071,225.967l-3.25,23.346" style="fill:none;stroke:#fff;stroke-width:8.67px;"/><path d="M235.225,221.608c0,0 -52.8,36.371 -57.404,27.704" style="fill:none;stroke:#fff;stroke-width:8.67px;"/><path d="M162.383,125.2c0,0 -49.413,40.854 -42.333,47.65" style="fill:none;stroke:#fff;stroke-width:8.67px;"/><path d="M233.567,193.575l1.658,28.033" style="fill:none;stroke:#fff;stroke-width:8.67px;"/><path d="M188.9,134.454l-26.517,-9.254" style="fill:none;stroke:#fff;stroke-width:8.67px;"/><path d="M329.713,77.108c0,0 -76.821,-31.137 -166.65,90.463" style="fill:none;stroke:#fff;stroke-width:8.67px;"/><path d="M329.713,77.108c0,0 3.992,75.821 -134.533,132.975" style="fill:none;stroke:#fff;stroke-width:8.67px;"/><path d="M163.563,223.529l-36.571,27.629" style="fill:none;stroke:#fff;stroke-width:8.67px;"/><path d="M127.733,224.488l-19.946,15.071" style="fill:none;stroke:#fff;stroke-width:8.67px;"/><path d="M135.121,192.796l-29.921,22.604" style="fill:none;stroke:#fff;stroke-width:8.67px;"/><path d="M197.546,171.742l-49.867,37.675" style="fill:none;stroke:#fff;stroke-width:8.67px;"/><path d="M163.263,167.833c0,0 -0.029,29.575 31.921,42.25" style="fill:none;stroke:#fff;stroke-width:8.67px;"/><path d="M278.592,113.121c4.85,6.421 3.579,15.575 -2.846,20.425c-6.421,4.85 -15.575,3.579 -20.425,-2.846c-4.85,-6.421 -3.579,-15.575 2.846,-20.425c6.421,-4.85 15.575,-3.579 20.425,2.846Z" style="fill:none;stroke:#fff;stroke-width:8.67px;"/><path d="M235.525,145.979c4.158,5.504 3.067,13.35 -2.438,17.508c-5.504,4.158 -13.35,3.067 -17.508,-2.438c-4.158,-5.504 -3.067,-13.35 2.438,-17.508c5.504,-4.158 13.35,-3.067 17.508,2.438Z" style="fill:none;stroke:#fff;stroke-width:8.67px;"/></g><g><text x="57.746px" y="332.683px" style="font-family:'Noteworthy-Bold', 'Noteworthy';font-weight:700;font-size:52.083px;fill:#fff;stroke:#fff;stroke-width:1.75px;stroke-linecap:butt;stroke-miterlimit:2;">Shop Boo</text><text x="269.921px" y="332.683px" style="font-family:'Noteworthy-Bold', 'Noteworthy';font-weight:700;font-size:52.083px;fill:#fff;stroke:#fff;stroke-width:1.75px;stroke-linecap:butt;stroke-miterlimit:2;">st<tspan x="313.346px 338.088px " y="332.683px 332.683px ">er</tspan></text></g></svg>