<?xml version="1.0" encoding="UTF-8" standalone="no"?><!DOCTYPE svg PUBLIC "-//W3C//DTD SVG 1.1//EN" "http://www.w3.org/Graphics/SVG/1.1/DTD/svg11.dtd"><svg width="100%" height="100%" viewBox="0 0 100 100" version="1.1" xmlns="http://www.w3.org/2000/svg" xmlns:xlink="http://www.w3.org/1999/xlink" xml:space="preserve" xmlns:serif="http://www.serif.com/" style="fill-rule:evenodd;clip-rule:evenodd;stroke-linecap:round;stroke-linejoin:round;stroke-miterlimit:1.5;"><g><path d="M69.929,17.938c0,0 -0.797,6.803 6.631,8.777" style="fill:none;stroke:#000;stroke-width:2.08px;"/><path d="M28.812,41.484l5.603,0.78" style="fill:none;stroke:#000;stroke-width:2.08px;"/><path d="M43.457,54.232l-0.78,5.603" style="fill:none;stroke:#000;stroke-width:2.08px;"/><path d="M56.454,53.186c0,0 -12.672,8.729 -13.777,6.649" style="fill:none;stroke:#000;stroke-width:2.08px;"/><path d="M38.972,30.048c0,0 -11.859,9.805 -10.16,11.436" style="fill:none;stroke:#000;stroke-width:2.08px;"/><path d="M56.056,46.458l0.398,6.728" style="fill:none;stroke:#000;stroke-width:2.08px;"/><path d="M45.336,32.269l-6.364,-2.221" style="fill:none;stroke:#000;stroke-width:2.08px;"/><path d="M79.131,18.506c0,0 -18.437,-7.473 -39.996,21.711" style="fill:none;stroke:#000;stroke-width:2.08px;"/><path d="M79.131,18.506c0,0 0.958,18.197 -32.288,31.914" style="fill:none;stroke:#000;stroke-width:2.08px;"/><path d="M39.255,53.647l-8.777,6.631" style="fill:none;stroke:#000;stroke-width:2.08px;"/><path d="M30.656,53.877l-4.787,3.617" style="fill:none;stroke:#000;stroke-width:2.08px;"/><path d="M32.429,46.271l-7.181,5.425" style="fill:none;stroke:#000;stroke-width:2.08px;"/><path d="M47.411,41.218l-11.968,9.042" style="fill:none;stroke:#000;stroke-width:2.08px;"/><path d="M39.183,40.28c0,0 -0.007,7.098 7.661,10.14" style="fill:none;stroke:#000;stroke-width:2.08px;"/><path d="M66.862,27.149c1.164,1.541 0.859,3.738 -0.683,4.902c-1.541,1.164 -3.738,0.859 -4.902,-0.683c-1.164,-1.541 -0.859,-3.738 0.683,-4.902c1.541,-1.164 3.738,-0.859 4.902,0.683Z" style="fill:none;stroke:#000;stroke-width:2.08px;"/><path d="M56.526,35.035c0.998,1.321 0.736,3.204 -0.585,4.202c-1.321,0.998 -3.204,0.736 -4.202,-0.585c-0.998,-1.321 -0.736,-3.204 0.585,-4.202c1.321,-0.998 3.204,-0.736 4.202,0.585Z" style="fill:none;stroke:#000;stroke-width:2.08px;"/></g><g transform="matrix(12.5,0,0,12.5,86.140625,79.84375)"></g><text x="13.859px" y="79.844px" style="font-family:'Noteworthy-Bold', 'Noteworthy';font-weight:700;font-size:12.5px;stroke:#000;stroke-width:0.42px;stroke-linecap:butt;stroke-miterlimit:2;">Shop Boo<tspan x="64.781px 70.938px 75.203px 81.141px " y="79.844px 79.844px 79.844px 79.844px ">ster</tspan></text></svg>